# xmcd
#
# Track frame offsets: 
#        150
#        14761
#        25799
#        37940
#        53983
#        67012
#        78357
#        89959
#        107342
#        123393
#        134566
#        148910
#        166125
#        179314
#        195457
#        210777
#        224389
#        241768
#        256325
#        271290
#        285767
#        299491
#
# Disc length: 4254 seconds
#
# Revision: 5
# Processed by: cddbd v1.5.2PL0 Copyright (c) Steve Scherf et al.
# Submitted via: ExactAudioCopyFreeDBPlugin 1.0
#
DISCID=42109c16
DTITLE=Andy Williams - Best of the 70 s
DYEAR=2003
DGENRE=Easy Listening
TTITLE0=Can't Help Falling in Love
TTITLE1=It's So Easy
TTITLE2=I Think I Love You
TTITLE3=Candida
TTITLE4=For Once in My Life
TTITLE5=Here Comes That Rainy Day Feeling Again
TTITLE6=You Are
TTITLE7=It's Too Late
TTITLE8=Never Can Say Goodbye
TTITLE9=Rose Garden
TTITLE10=Spanish Harlem
TTITLE11=If You Could Read My Mind
TTITLE12=Wichita Lineman
TTITLE13=Fire and Rain
TTITLE14=Sweet Caroline
TTITLE15=My Cherie Amour
TTITLE16=Aquarius - Let the Sun Shine In
TTITLE17=We've Only Just Begun
TTITLE18=(They Long to Be) Close to You
TTITLE19=(Where Do I Begin) Love Story
TTITLE20=Love Theme from The Godfather (Speak Softly Love)
TTITLE21=Solitare
EXTD=Released by Sony Music (5 099751 086826)
EXTT0=
EXTT1=
EXTT2=
EXTT3=
EXTT4=
EXTT5=
EXTT6=
EXTT7=
EXTT8=
EXTT9=
EXTT10=
EXTT11=
EXTT12=
EXTT13=
EXTT14=
EXTT15=
EXTT16=
EXTT17=
EXTT18=
EXTT19=
EXTT20=
EXTT21=
PLAYORDER=
